/vscmnt/brussel_pixiu_data/_data_brussel/112/vsc11236/PredSimResults/SUBJ10mtu3D/worker3.mot
version=1
nRows=11
nColumns=50
inDegrees=yes
endheader
                time	         pelvis_tilt	         pelvis_list	     pelvis_rotation	           pelvis_tx	           pelvis_ty	           pelvis_tz	       hip_flexion_r	     hip_adduction_r	      hip_rotation_r	        knee_angle_r	       ankle_angle_r	         mtp_angle_r	       hip_flexion_l	     hip_adduction_l	      hip_rotation_l	        knee_angle_l	       ankle_angle_l	         mtp_angle_l	    lumbar_extension	      lumbar_bending	     lumbar_rotation	 ercspn_r/activation	 intobl_r/activation	 extobl_r/activation	    abd_r/activation	    add_r/activation	hamstrings_r/activation	bifemsh_r/activation	glut_max_r/activation	iliopsoas_r/activation	rect_fem_r/activation	  vasti_r/activation	gastroc_r/activation	 soleus_r/activation	tib_ant_r/activation	 ercspn_l/activation	 intobl_l/activation	 extobl_l/activation	    abd_l/activation	    add_l/activation	hamstrings_l/activation	bifemsh_l/activation	glut_max_l/activation	iliopsoas_l/activation	rect_fem_l/activation	  vasti_l/activation	gastroc_l/activation	 soleus_l/activation	tib_ant_l/activation	
          0.00000000	         -4.28074264	         -0.93891647	          7.69445032	          0.00000000	          0.82211587	         -0.01258442	         31.16988890	         -1.88452257	         -6.42889723	         -6.88101362	          1.94503511	          0.26847184	        -16.79447833	         -0.93728722	         -0.33535233	         -4.91300621	          7.45251180	         27.06799376	         -7.07685227	         -0.77104994	         -6.42207344	          0.11966452	          0.19124741	          0.00999999	          0.01000000	          0.11845761	          0.11803127	          0.27593871	          0.02997297	          0.10858619	          0.01000000	          0.00999999	          0.01000000	          0.00999999	          0.30381376	          0.06280430	          0.00999999	          0.00999999	          0.05425523	          0.00999999	          0.01460150	          0.23798226	          0.01058962	          0.35673238	          0.01000000	          0.00999999	          0.32171531	          0.24657059	          0.02345020	
          0.01115094	         -4.32468122	         -0.90136149	          7.82382418	          0.01557550	          0.82072340	         -0.01249987	         31.09916055	         -1.79497474	         -6.25227139	         -8.47230498	          1.68191578	          0.26536653	        -16.91859867	         -1.05623523	         -0.60342333	         -6.51685221	          6.72848604	         28.72555998	         -6.89779424	         -0.33926430	         -6.70043823	          0.10091044	          0.16127468	          0.01000000	          0.00999999	          0.15865332	          0.10169723	          0.23392715	          0.06749787	          0.09156831	          0.00999999	          0.00999999	          0.01667601	          0.01185849	          0.32987838	          0.10221624	          0.00999999	          0.00999999	          0.04575222	          0.01000002	          0.01231323	          0.20068514	          0.01158319	          0.30082447	          0.01000000	          0.00999999	          0.28771875	          0.23628403	          0.01977503	
          0.02230188	         -4.35793294	         -0.87503374	          7.91095721	          0.03145974	          0.81953576	         -0.01233712	         30.86353440	         -1.71721542	         -6.01394672	         -9.94822692	          1.28625811	          0.25605741	        -16.93272026	         -1.19316267	         -0.90480178	         -8.35253327	          5.87383590	         30.32511030	         -6.69887322	          0.11375190	         -6.95336357	          0.09154894	          0.13599934	          0.00999999	          0.03344246	          0.13378881	          0.08880397	          0.19726555	          0.09936985	          0.07721752	          0.00999999	          0.00999999	          0.01406251	          0.01000000	          0.41682098	          0.11272567	          0.00999999	          0.00999999	          0.03858183	          0.01000000	          0.01038357	          0.16923330	          0.00999999	          0.25367857	          0.01000000	          0.00999999	          0.24262681	          0.22046928	          0.01667584	
          0.03345282	         -4.38194590	         -0.84722891	          7.94987626	          0.04744604	          0.81867084	         -0.01205026	         30.55549804	         -1.63562554	         -5.85274707	        -11.28243070	          0.77887272	          0.24195266	        -16.76590203	         -1.33590359	         -1.24042429	        -10.51500340	          4.89287815	         31.78219031	         -6.50553847	          0.56466094	         -7.17414188	          0.10737917	          0.11468521	          0.00999999	          0.08498401	          0.17464344	          0.07488644	          0.16634965	          0.11482109	          0.06511581	          0.00999999	          0.00999999	          0.01185860	          0.00999999	          0.47182479	          0.14178976	          0.00999999	          0.00999999	          0.03253520	          0.01000000	          0.01000088	          0.14271067	          0.00999999	          0.21392148	          0.01000000	          0.00999999	          0.20460178	          0.20367155	          0.01406237	
          0.04460375	         -4.39598957	         -0.81705833	          7.94539728	          0.06338737	          0.81822911	         -0.01165027	         30.26139891	         -1.55152611	         -5.75984915	        -12.67058874	          0.39579196	          0.22567373	        -16.36584275	         -1.48643858	         -1.61191993	        -13.07035459	          3.79490290	         32.96587944	         -6.33014218	          1.01091474	         -7.36147257	          0.11428448	          0.09671148	          0.00999999	          0.12519363	          0.22291936	          0.06553681	          0.14027895	          0.13008299	          0.05491071	          0.00999999	          0.00999999	          0.01000009	          0.00999999	          0.48648920	          0.17751257	          0.00999999	          0.00999999	          0.02743621	          0.02326850	          0.02223516	          0.12034473	          0.01000000	          0.18039522	          0.01000000	          0.00999999	          0.17253612	          0.17844999	          0.01185848	
          0.05575469	         -4.40001419	         -0.78667151	          7.90254255	          0.07917414	          0.81830153	         -0.01115182	         30.02115695	         -1.46580013	         -5.71262085	        -14.19002460	          0.25602134	          0.20848471	        -15.68865028	         -1.65069974	         -2.03016204	        -16.06860137	          2.59327458	         33.69831390	         -6.17773320	          1.45209936	         -7.51679710	          0.11547752	          0.08155464	          0.00999999	          0.14890539	          0.26176036	          0.06076637	          0.11829411	          0.13740520	          0.04630498	          0.00999999	          0.03523012	          0.00999999	          0.00999999	          0.48107749	          0.20564424	          0.00999999	          0.00999999	          0.02313634	          0.08775830	          0.01883556	          0.10148403	          0.00999999	          0.15212327	          0.01000000	          0.00999999	          0.14549586	          0.15048290	          0.00999999	
          0.06690563	         -4.39543473	         -0.75040952	          7.82190741	          0.09473437	          0.81897028	         -0.01057641	         29.79012858	         -1.37812204	         -5.68842736	        -15.75318044	          0.40177587	          0.19324493	        -14.69748490	         -1.82782151	         -2.51871543	        -19.55042869	          1.29789837	         33.77223446	         -6.05026956	          1.88020159	         -7.63942163	          0.11568578	          0.06877321	          0.00999999	          0.15988012	          0.28931466	          0.05950112	          0.09975479	          0.13454608	          0.03904796	          0.00999999	          0.05752516	          0.00999999	          0.00999999	          0.44762848	          0.21704464	          0.00999999	          0.00999999	          0.01951036	          0.15556778	          0.01693950	          0.08557922	          0.00999999	          0.12828216	          0.00999999	          0.00999999	          0.12269342	          0.12689887	          0.00999999	
          0.07805657	         -4.38409992	         -0.70235343	          7.70379514	          0.11004395	          0.82023859	         -0.00995032	         29.49390628	         -1.28432131	         -5.65630895	        -17.22376744	          0.84404889	          0.19943373	        -13.38124894	         -2.02181890	         -3.07818887	        -23.48691593	         -0.20841466	         33.18060541	         -5.94580454	          2.28909202	         -7.72753572	          0.10782814	          0.05799491	          0.00999999	          0.16337435	          0.29467969	          0.06013651	          0.08412099	          0.12583448	          0.03292827	          0.00999999	          0.08346908	          0.00999999	          0.00999999	          0.38343215	          0.21897669	          0.00999999	          0.00999999	          0.01645265	          0.22661756	          0.02134324	          0.07216705	          0.00999999	          0.10817749	          0.00999999	          0.00999999	          0.10346462	          0.10701099	          0.00999999	
          0.08920751	         -4.36862502	         -0.63638503	          7.54734978	          0.12507640	          0.82206775	         -0.00929724	         29.05742823	         -1.17960727	         -5.58251264	        -18.44964577	          1.52461879	          0.26788238	        -11.75299395	         -2.23606071	         -3.69141192	        -27.78244012	         -2.07269759	         31.96659643	         -5.86518415	          2.67322160	         -7.77927016	          0.09092908	          0.04890582	          0.00999999	          0.16211627	          0.27799433	          0.06335624	          0.07093736	          0.10611343	          0.02776768	          0.00999999	          0.11188551	          0.00999999	          0.00999999	          0.32333980	          0.21328436	          0.00999999	          0.00999999	          0.01387415	          0.27744052	          0.01988458	          0.06085687	          0.00999999	          0.09122366	          0.00999999	          0.00999999	          0.08724941	          0.09023998	          0.00999999	
          0.10035845	         -4.35183065	         -0.54574745	          7.35123204	          0.13979109	          0.82439331	         -0.00862811	         28.43733077	         -1.06503071	         -5.44609359	        -19.32231992	          2.30091389	          0.40367570	         -9.84816103	         -2.47070172	         -4.32111537	        -32.28995955	         -4.41809883	         30.17755463	         -5.81393970	          3.02450562	         -7.79311210	          0.07667847	          0.04124119	          0.01000000	          0.15610530	          0.23450849	          0.07004649	          0.05981989	          0.08948309	          0.02341586	          0.00999999	          0.11668445	          0.00999999	          0.00999999	          0.27266525	          0.21164343	          0.02524979	          0.00999999	          0.01169977	          0.23423484	          0.06515070	          0.05131926	          0.00999999	          0.07692688	          0.00999999	          0.00999999	          0.07357548	          0.07609736	          0.01000000	
          0.11150938	         -4.33491006	         -0.42859441	          7.12369797	          0.15414773	          0.82708079	         -0.00794072	         27.65672574	         -0.95200012	         -5.25984172	        -19.86225787	          3.07433607	          0.59666022	         -7.72598084	         -2.72376459	         -4.91021053	        -36.88840212	         -6.91529544	         27.46749052	         -5.79847637	          3.33388984	         -7.77080091	          0.06466124	          0.03477777	          0.00999999	          0.15541539	          0.19775578	          0.07160263	          0.05044478	          0.07545911	          0.01974608	          0.00999999	          0.13610867	          0.00999999	          0.00999999	          0.24013957	          0.22327237	          0.06475415	          0.01000000	          0.00999999	          0.19752502	          0.05494018	          0.05328118	          0.01185847	          0.06487072	          0.00999999	          0.00999999	          0.06204456	          0.06417121	          0.14040208	
